<svg width="22" height="22" viewBox="0 0 22 22" fill="none" xmlns="http://www.w3.org/2000/svg">
<path d="M7 7L7 6.50003V6.50003C7 5.10444 7 4.40665 7.17225 3.83884C7.56005 2.56045 8.56045 1.56005 9.83884 1.17225C10.4066 1 11.1044 1 12.5 1L14.6 1C16.8402 1 17.9603 1 18.816 1.43597C19.5686 1.81947 20.1805 2.43139 20.564 3.18404C21 4.03969 21 5.15979 21 7.4L21 14.6C21 16.8402 21 17.9603 20.564 18.816C20.1805 19.5686 19.5686 20.1805 18.816 20.564C17.9603 21 16.8402 21 14.6 21H12.5C11.1044 21 10.4067 21 9.83888 20.8278C8.56046 20.44 7.56003 19.4395 7.17223 18.1611C7 17.5933 7 16.8956 7 15.5V15.5L7 15M1 11H16M16 11L12 7M16 11L12 15" stroke="black" stroke-width="2" stroke-linecap="round" stroke-linejoin="round"/>
</svg>
